<mxfile host="app.diagrams.net" modified="2023-08-24T07:33:48.562Z" agent="Mozilla/5.0 (Windows NT 10.0; Win64; x64) AppleWebKit/537.36 (KHTML, like Gecko) Chrome/116.0.0.0 Safari/537.36 Edg/116.0.1938.54" version="21.6.7" etag="c_7fO80G_iXnq_N0f_Qj" type="github">
  <diagram name="Trang-1" id="nIetb-uRlWgPEiGhsn72">
    <mxGraphModel>
      <root>
        <mxCell id="0" />
        <mxCell id="1" parent="0" />
      </root>
    </mxGraphModel>
  </diagram>
</mxfile>
